<svg width="466" height="360" viewBox="0 0 466 360" fill="none" xmlns="http://www.w3.org/2000/svg">
<g filter="url(#filter0_d)">
<path fill-rule="evenodd" clip-rule="evenodd" d="M185.774 56.09L182.929 60.967H180.2L179.33 62.401H182.087L176.018 72.784C174.741 74.992 175.642 77.03 178.08 77.03C179.303 77.03 180.618 76.393 181.933 75.409L181.155 76.743H184.201L188.789 68.856C193.433 63.089 195.495 63.836 194.188 66.046L190.268 72.786C188.99 74.996 189.891 77.034 192.329 77.034C194.125 77.034 196.117 75.664 198.022 73.829C198.168 75.686 199.689 77.034 202.112 77.034C205.535 77.034 208.932 74.394 211.428 71.526C211.231 71.123 210.709 70.665 210.302 70.493L210.099 70.719C207.921 73.216 205.135 75.194 203.017 75.194C201.157 75.194 200.053 74.048 201.447 71.639L201.737 71.119C203.683 71.924 207.341 71.55 209.605 67.679L210.042 66.932C211.667 64.179 210.1 62.114 207.632 62.114C205.193 62.114 203.249 63.377 201.972 65.555L199.042 70.52L198.866 70.72C196.689 73.214 194.571 75.192 193.235 75.192C192.569 75.192 192.189 74.732 192.885 73.557L197.24 66.014C198.546 63.749 197.3 62.114 195.616 62.114C194.309 62.114 192.914 62.831 191.406 64.379L196.224 56.09H193.205L184.782 70.528L184.612 70.718C182.436 73.214 180.315 75.192 178.979 75.192C178.312 75.192 177.935 74.732 178.633 73.557L185.105 62.399H187.572L188.444 60.966H185.948L188.793 56.091L185.774 56.09ZM153.465 60.969L156.31 56.094H159.329L156.483 60.967H158.982L158.11 62.403H155.645L149.169 73.561C148.472 74.736 148.85 75.196 149.517 75.196C150.852 75.196 152.974 73.217 155.15 70.721L155.306 70.545L156.543 68.455L158.023 65.902C159.765 62.918 161.563 62.002 163.885 62.002C166.731 62.002 168.414 64.955 166.586 68.082L163.741 72.928C165.252 72.899 166.935 72.184 168.299 70.721L168.504 70.493C168.91 70.665 169.432 71.122 169.632 71.526C168.092 73.332 165.248 74.422 163.448 74.422H162.782C159.513 78.506 154.166 77.763 154.172 73.961C152.306 75.73 150.369 77.034 148.615 77.034C146.177 77.034 145.276 74.996 146.554 72.787L152.622 62.404H149.865L150.735 60.969H153.465ZM164.263 66.967C165.291 65.225 164.825 64.02 163.841 63.93C163.076 63.86 161.998 64.466 161.071 66.022L159.62 68.459L157.326 72.387C155.526 75.484 158.983 75.943 160.405 73.533L160.435 73.477C160.26 73.189 160.144 72.844 160.144 72.473C160.144 71.498 160.927 70.694 161.914 70.694H162.059L164.263 66.967ZM207.575 66.936C208.587 65.192 208.055 64.275 207.086 64.332V64.333C206.334 64.377 205.317 65.011 204.554 66.303L202.608 69.66C203.741 70.062 205.688 70.12 207.138 67.682L207.575 66.936ZM251.404 58.869C249.69 60.389 249.546 62.083 250.621 63.459L250.883 63.803L250.821 63.8899C249.492 65.7458 247.718 68.2255 245.773 70.487L245.775 70.49L245.572 70.719C244.207 72.18 242.526 72.899 241.014 72.928L243.857 68.08C245.687 64.954 244.004 62 241.157 62C238.837 62 237.037 62.918 235.297 65.9L233.813 68.453L232.575 70.545L232.421 70.721C229.924 73.561 227.778 75.392 225.396 76.397L232.159 64.983H230.389C230.389 63.749 229.113 62.113 227.225 62.113C225.601 62.113 223.335 63.378 222.057 65.557L217.819 72.784C216.541 74.992 217.441 77.03 219.879 77.03C220.722 77.03 221.739 76.656 222.756 76.026L221.913 77.43C217.849 78.663 215.293 80.298 215.293 82.536C215.293 85.405 219.735 86.007 221.913 82.336L224.205 78.406C226.621 77.663 228.988 76.259 231.445 73.942C231.424 77.759 236.782 78.509 240.055 74.418H240.723C242.523 74.418 245.368 73.329 246.907 71.522C248.356 69.858 249.487 68.367 251.897 65.127L252.302 65.616C252.679 66.103 252.827 66.706 252.477 67.307L249.284 72.786C248.004 74.996 248.905 77.032 251.345 77.032C252.875 77.032 254.549 76.037 256.187 74.61C256.137 75.996 257.074 77.032 258.806 77.032C259.646 77.032 260.663 76.659 261.68 76.028L260.838 77.43C256.773 78.663 254.222 80.298 254.222 82.536C254.222 85.405 258.662 86.006 260.838 82.336L263.13 78.406C265.59 77.648 268 76.2 270.507 73.807C270.643 75.675 272.165 77.032 274.597 77.032C277.055 77.032 279.496 75.669 281.601 73.842C281.484 77.747 286.911 78.545 290.213 74.42H290.881C291.826 74.42 293.056 74.112 294.238 73.567C293.425 75.64 294.172 77.032 295.899 77.032C297.555 77.032 299.412 75.54 300.863 74.164C300.573 75.769 301.53 77.032 303.447 77.032C305.943 77.032 308.817 74.395 311.315 71.526L311.313 71.524C312.668 69.9796 313.896 68.3481 314.883 67.0383L314.883 67.0381C315.143 66.6925 315.387 66.3693 315.611 66.076C315.211 67.1162 315.017 68.435 314.827 69.7278C314.452 72.2827 314.091 74.736 312.185 74.736C311.169 74.736 310.765 73.646 310.765 73.646L308.875 74.621C308.875 74.621 309.426 77.033 312.185 77.033C312.453 77.033 312.697 77.0074 312.959 76.9799L313.025 76.973C313.04 76.973 313.055 76.9662 313.071 76.9595C313.086 76.9527 313.101 76.946 313.116 76.946C316.192 76.546 319.24 74.136 321.504 71.526C321.331 71.067 320.808 70.608 320.374 70.492L320.171 70.721C319.106 71.9533 317.886 73.0423 316.541 73.961C316.916 72.8472 317.113 71.4997 317.326 70.043C317.657 67.7852 318.025 65.2653 319.155 62.947L316.891 61.742C316.66 62.0549 316.379 62.4432 316.056 62.8882C314.633 64.8511 312.41 67.9181 310.185 70.49V70.492L309.982 70.721C307.806 73.217 305.687 75.193 304.351 75.193C303.684 75.193 303.306 74.734 304.004 73.559L310.448 62.401H307.428L302.058 71.666C299.765 73.73 297.996 74.878 297.414 74.619C296.714 74.3277 297.313 73.3433 297.705 72.6988C297.736 72.6486 297.765 72.6005 297.792 72.555L303.685 62.403H300.665L295.931 70.495L295.732 70.721C294.368 72.184 292.685 72.901 291.174 72.931L294.019 68.082C295.847 64.955 294.169 62.002 291.32 62.002C288.997 62.002 287.197 62.92 285.456 65.905L283.974 68.455L282.737 70.545L282.582 70.723C280.406 73.219 277.618 75.196 275.499 75.196C273.641 75.196 272.539 74.05 273.932 71.641L274.222 71.123C276.166 71.927 279.826 71.553 282.089 67.68L282.527 66.934C284.15 64.18 282.585 62.115 280.117 62.115C277.677 62.115 275.73 63.38 274.454 65.559L271.528 70.524L271.353 70.721C268.854 73.561 266.708 75.394 264.325 76.399L271.089 64.983H269.317C269.317 63.749 268.04 62.115 266.153 62.115C264.528 62.115 262.264 63.378 260.986 65.557L258.09 70.494L258.082 70.49L257.879 70.72C255.703 73.215 253.581 75.194 252.245 75.194C251.578 75.194 251.203 74.734 251.899 73.559L254.917 68.339C255.962 66.532 255.468 65.469 254.48 64.293L252.797 62.283C252.362 61.738 252.362 61.137 252.972 60.563L251.404 58.869ZM241.534 66.967C242.561 65.225 242.094 64.019 241.11 63.929V63.93C240.346 63.86 239.27 64.466 238.342 66.022L236.889 68.459L234.597 72.387C232.797 75.484 236.253 75.943 237.675 73.533L237.703 73.477C237.529 73.189 237.413 72.844 237.413 72.473C237.413 71.498 238.197 70.694 239.183 70.694H239.33L241.534 66.967ZM291.268 63.929C292.252 64.019 292.721 65.225 291.694 66.967L289.488 70.694H289.341C288.355 70.694 287.573 71.498 287.573 72.473C287.573 72.844 287.689 73.189 287.862 73.477L287.832 73.533C286.411 75.943 282.957 75.484 284.757 72.387L287.049 68.459L288.5 66.022C289.427 64.466 290.503 63.86 291.268 63.93V63.929ZM280.053 66.936C281.065 65.193 280.536 64.277 279.568 64.334V64.335C278.816 64.379 277.798 65.013 277.036 66.305L275.088 69.66C276.221 70.062 278.167 70.12 279.618 67.682L280.053 66.936ZM227.165 64.535C228.188 64.529 228.843 65.419 228.01 66.935L225.718 70.895C223.888 73.792 222.058 75.195 220.78 75.195C220.113 75.195 219.735 74.736 220.431 73.561L224.643 66.305C225.353 65.088 226.37 64.54 227.165 64.535ZM266.933 66.935C267.766 65.419 267.111 64.529 266.088 64.535C265.293 64.54 264.276 65.088 263.566 66.305L259.356 73.561C258.662 74.736 259.038 75.195 259.705 75.195C260.981 75.195 262.813 73.792 264.641 70.895L266.933 66.935ZM220.75 79.443L220.749 79.4443C218.459 80.3322 217.732 81.2201 217.732 81.994C217.732 82.797 218.748 82.968 219.386 81.85L220.749 79.4443L220.75 79.444V79.443ZM259.674 79.4443L259.675 79.443V79.444L259.674 79.4443ZM259.674 79.4443L258.313 81.85C257.673 82.968 256.657 82.797 256.657 81.994C256.657 81.2201 257.383 80.3322 259.674 79.4443ZM105.025 67.831H133.947V69.781H105.025V67.831ZM360.977 67.831H332.055V69.781H360.977V67.831Z" fill="#766458"/>
</g>
<g filter="url(#filter1_d)">
<path fill-rule="evenodd" clip-rule="evenodd" d="M198.824 37.364V45.1H178.008V0.352997H198.824V8.023H185.624V18.827H196.159V26.497H185.624V37.363L198.824 37.364ZM220.17 45.1V37.364L209.573 37.363V0.352997H201.957V45.1H220.17ZM326.7 45.1V37.364H313.499V26.497H324.034V18.827H313.499V8.024H326.7V0.352997H305.884V45.1H326.7ZM301.459 0.353997H293.908L287.115 21.959L280.324 0.353997H272.772V45.101H280.389V23.111L283.371 34.489H290.796L293.843 23.111V45.101H301.459V0.353997ZM261.999 8.024H256.476V37.364H262L261.999 8.024ZM269.679 5.085C269.679 2.463 267.521 0.353997 264.981 0.353997L253.557 0.354997C250.957 0.354997 248.861 2.464 248.861 5.085V40.37C248.861 42.927 250.957 45.1 253.557 45.1H264.981C267.521 45.1 269.679 42.927 269.679 40.37V5.085ZM236.971 28.606L244.649 26.816V40.368C244.649 42.925 242.492 45.098 239.953 45.098H228.528C225.928 45.098 223.833 42.925 223.833 40.368V5.084C223.833 2.462 225.928 0.353997 228.528 0.353997H239.951C242.491 0.353997 244.648 2.462 244.648 5.084V14.161L236.97 15.951V8.023H231.448V37.363H236.97L236.971 28.606ZM174.241 0.353997H166.564L165.994 37.364H165.232L160.344 0.353997H152.792L148.032 37.364H147.208L146.573 0.353997H138.957L140.099 45.1H154.632L156.599 26.626L158.567 45.1H173.037L174.241 0.353997Z" fill="#81B3D3"/>
</g>
<g filter="url(#filter2_d)">
<path fill-rule="evenodd" clip-rule="evenodd" d="M13.673 190.115C13.75 190.193 13.789 190.27 13.789 190.348C13.867 190.348 13.944 190.386 14.021 190.464C16.111 192.786 18.473 194.954 21.105 196.967C23.737 198.902 26.757 199.947 30.163 200.102C30.241 200.102 30.318 200.142 30.395 200.219H30.744C30.821 200.219 30.899 200.257 30.976 200.335H32.253C32.641 200.257 32.989 200.18 33.299 200.102C34.54 199.869 35.7235 199.396 36.783 198.709C37.943 198.012 38.834 197.16 39.453 196.154L39.686 195.689L39.918 195.225C40.073 194.683 40.189 194.18 40.267 193.715C40.344 193.251 40.383 192.825 40.383 192.438C40.383 190.348 39.453 188.606 37.596 187.212C35.8645 185.769 33.9011 184.631 31.789 183.844C30.9947 183.551 30.1794 183.318 29.35 183.148C28.622 182.928 27.8862 182.734 27.144 182.567H26.912C26.834 182.49 26.757 182.451 26.68 182.451C22.9145 181.533 19.3115 180.045 15.996 178.038C12.666 175.948 10.383 172.967 9.14403 169.096C8.9014 168.286 8.66905 167.473 8.44703 166.657C8.28809 165.773 8.17195 164.882 8.09903 163.987C8.0277 163.721 7.98875 163.448 7.98303 163.173V160.386C8.06003 159.767 8.17603 159.148 8.33103 158.528C8.57144 156.947 8.96015 155.391 9.49203 153.883C10.034 152.335 10.731 150.941 11.582 149.703C14.06 145.599 17.234 142.657 21.105 140.877C25.054 139.096 29.157 138.206 33.415 138.206C34.422 138.206 35.428 138.283 36.435 138.438C37.5225 138.516 38.6068 138.632 39.686 138.786C42.51 139.261 45.2744 140.04 47.931 141.109C50.718 142.193 53.273 143.47 55.596 144.941L49.209 159.225C47.1246 157.681 44.9096 156.321 42.589 155.161C40.267 153.999 37.751 153.419 35.041 153.419H34.111C32.331 153.651 30.667 154.464 29.118 155.857C27.57 157.173 26.796 158.606 26.796 160.154V160.851C26.873 161.083 26.989 161.315 27.144 161.548C27.299 162.09 27.57 162.593 27.957 163.058C28.344 163.522 28.77 163.948 29.234 164.335C30.086 165.032 31.324 165.69 32.951 166.309C34.576 166.851 36.28 167.393 38.061 167.935C39.531 168.322 40.963 168.709 42.357 169.096C43.751 169.406 44.912 169.716 45.841 170.026C50.176 171.574 53.428 174.167 55.596 177.806C57.763 181.367 58.886 185.161 58.963 189.186V189.767C58.963 190.232 58.925 190.697 58.847 191.161V192.438C58.383 196.464 57.067 200.296 54.899 203.935C52.809 207.574 49.983 210.361 46.422 212.297C45.1002 212.918 43.7429 213.461 42.357 213.922C40.973 214.307 39.5792 214.656 38.177 214.968C37.0271 215.199 35.8633 215.354 34.693 215.432C33.5767 215.584 32.4516 215.661 31.325 215.664H30.047C25.402 215.51 20.835 214.503 16.344 212.644C11.854 210.709 7.86703 208.154 4.38403 204.98L13.673 190.115ZM229.567 143.869C223.219 147.353 218.264 152.386 214.703 158.966L214.702 158.965C213.679 160.861 212.824 162.842 212.147 164.887C211.462 166.859 210.919 168.877 210.522 170.926C210.289 172.011 210.134 173.055 210.057 174.061C209.98 175.068 209.941 176.075 209.941 177.081C209.941 183.894 211.799 190.475 215.515 196.823C219.231 203.094 224.341 207.933 230.844 211.339C233.212 212.565 235.704 213.538 238.276 214.242C240.864 214.931 243.506 215.397 246.173 215.636H247.683C248.222 215.713 248.765 215.752 249.309 215.752C256.895 215.752 264.135 213.7 271.025 209.597C277.915 205.417 282.986 199.572 286.237 192.062C286.845 190.55 287.349 188.998 287.747 187.417C288.205 185.823 288.516 184.191 288.676 182.54C288.831 181.765 288.909 180.991 288.909 180.217C288.986 179.365 289.025 178.552 289.025 177.778C289.025 171.354 287.515 165.198 284.496 159.314C281.477 153.353 277.219 148.592 271.722 145.03C269.173 143.407 266.445 142.082 263.593 141.082C260.849 140.086 258.007 139.386 255.115 138.992C254.186 138.914 253.219 138.837 252.212 138.759C251.283 138.682 250.354 138.643 249.425 138.643C242.535 138.643 235.915 140.385 229.567 143.869ZM302.712 213.95V139.976H322.222L350.093 177.95C350.813 179.075 351.472 180.238 352.067 181.434C352.771 182.608 353.429 183.809 354.041 185.034L355.435 188.054C355.899 189.06 356.364 190.027 356.828 190.956C356.755 190.138 356.639 189.324 356.48 188.518C356.403 187.744 356.325 186.931 356.248 186.079C356.09 184.495 355.974 182.908 355.899 181.318C355.819 179.655 355.78 177.989 355.783 176.324V139.976H375.176V213.95H355.783L327.68 175.744C326.906 174.815 326.17 173.731 325.474 172.493C324.77 171.161 324.111 169.805 323.5 168.428C323.05 167.453 322.586 166.485 322.106 165.525C321.747 164.585 321.359 163.655 320.945 162.738C321.332 165.138 321.642 167.577 321.874 170.054C322.106 172.531 322.216 175.009 322.222 177.486V213.95H302.712ZM410.172 139.976L384.74 213.95H404.714L408.546 200.595H437.114L440.83 213.95H461.036L435.372 139.976H410.172ZM412.844 186.311L420.392 161.808C420.699 160.733 420.971 159.649 421.205 158.556C421.521 157.445 421.792 156.322 422.017 155.189C422.094 155.034 422.134 154.918 422.134 154.84C422.134 154.686 422.172 154.531 422.25 154.376C422.327 153.911 422.405 153.485 422.482 153.098C422.637 152.634 422.753 152.208 422.83 151.821C422.908 152.208 422.985 152.634 423.063 153.098C423.14 153.486 423.256 153.911 423.411 154.376C423.653 155.659 423.924 156.937 424.224 158.208C424.6 159.412 424.987 160.612 425.385 161.808L432.934 186.311H412.844ZM267.542 185.559C267.774 184.785 267.968 183.972 268.122 183.12C268.355 182.269 268.51 181.417 268.587 180.565C268.665 180.024 268.703 179.482 268.703 178.94C268.781 178.398 268.819 177.894 268.819 177.43C268.819 176.963 268.78 176.497 268.703 176.036V174.643C268.316 171.313 267.31 168.101 265.683 165.004C264.058 161.907 261.813 159.507 258.948 157.804C258.174 157.417 257.4 157.069 256.626 156.759C255.852 156.449 255.077 156.179 254.303 155.946C253.535 155.792 252.76 155.676 251.981 155.598C251.216 155.444 250.438 155.366 249.658 155.365C245.71 155.365 242.071 156.605 238.742 159.082C235.413 161.559 233.09 164.849 231.774 168.952L231.542 169.417V169.881C231.303 170.604 231.109 171.341 230.962 172.088C230.807 172.785 230.652 173.52 230.497 174.294L230.265 175.92V178.359C230.265 178.591 230.303 178.862 230.381 179.172C230.613 183.275 231.851 187.185 234.097 190.901C236.419 194.539 239.594 196.939 243.619 198.101L245.013 198.565C245.477 198.643 245.981 198.72 246.523 198.797L247.916 199.03H249.31C253.413 199.03 257.09 197.83 260.342 195.43C263.671 192.952 266.071 189.662 267.542 185.559ZM173.541 212.092C177.799 211.162 181.747 209.459 185.386 206.982H185.387C189.877 203.73 193.322 199.55 195.722 194.44C198.122 189.33 199.438 184.027 199.671 178.53V175.627C199.671 175.162 199.632 174.698 199.554 174.234C199.245 168.968 197.89 163.859 195.49 158.904C193.09 153.95 189.722 149.963 185.387 146.944C182.023 144.485 178.189 142.746 174.123 141.834C170.097 140.905 165.993 140.324 161.813 140.092C160.652 140.014 159.452 139.976 158.213 139.976H133.129V213.95H156.935C158.175 213.95 159.414 213.911 160.651 213.834C164.986 213.602 169.283 213.022 173.541 212.092ZM152.986 197.343C153.218 197.343 153.451 197.382 153.683 197.459H154.496C154.806 197.459 155.076 197.499 155.309 197.576H158.444C159.296 197.498 160.109 197.421 160.883 197.343C162.887 197.19 164.87 196.84 166.805 196.298C168.741 195.756 170.483 194.943 172.031 193.859C174.509 192.079 176.328 189.679 177.489 186.659C178.721 183.595 179.352 180.323 179.347 177.021V176.091C179.347 175.782 179.309 175.472 179.231 175.163C179.079 172.23 178.369 169.353 177.141 166.685C175.902 163.898 174.199 161.692 172.031 160.065C170.441 158.767 168.574 157.853 166.573 157.395C164.592 156.924 162.569 156.652 160.534 156.582H152.986V197.343ZM73.076 139.975V213.949H118.482V197.343H92.934V184.801H116.973V169.007H92.934V156.117H118.482V139.975H73.076ZM355.423 336.358C355.31 336.649 355.253 336.941 355.253 337.235C355.253 337.953 355.5 338.504 355.993 338.884C356.488 339.268 357.063 339.458 357.713 339.458C357.689 339.839 357.589 340.176 357.409 340.468C357.23 340.759 357.001 341.016 356.733 341.228C356.466 341.441 356.179 341.621 355.876 341.767C355.572 341.912 355.298 342.029 355.048 342.119L356.398 344.109C356.431 344.093 356.464 344.077 356.496 344.062L356.526 344.048L356.582 344.022C356.644 343.993 356.706 343.966 356.768 343.939C356.974 343.851 357.214 343.731 357.494 343.587C357.802 343.424 358.1 343.244 358.387 343.047C358.689 342.844 358.972 342.613 359.23 342.356C359.783 341.807 360.223 341.154 360.526 340.436C360.83 339.717 360.981 338.928 360.981 338.078C360.981 337.627 360.915 337.201 360.779 336.797C360.644 336.393 360.454 336.045 360.207 335.753C359.916 335.436 359.56 335.196 359.146 335.026C358.73 334.858 358.298 334.774 357.848 334.774C357.443 334.774 357.078 334.848 356.753 334.994C356.443 335.129 356.162 335.323 355.926 335.566C355.703 335.802 355.535 336.065 355.423 336.358ZM363.09 337.235C363.09 336.942 363.147 336.649 363.257 336.358C363.37 336.065 363.539 335.802 363.763 335.566C363.99 335.331 364.263 335.138 364.588 334.994C364.915 334.849 365.278 334.774 365.684 334.774C366.134 334.774 366.567 334.858 366.981 335.026C367.398 335.196 367.751 335.436 368.042 335.753C368.292 336.045 368.482 336.393 368.616 336.797C368.75 337.202 368.818 337.628 368.818 338.078C368.827 338.887 368.672 339.689 368.363 340.436C368.059 341.154 367.618 341.806 367.065 342.356C366.806 342.613 366.523 342.844 366.22 343.047C365.934 343.246 365.636 343.426 365.327 343.587C365.047 343.732 364.807 343.851 364.602 343.939C364.478 343.993 364.354 344.05 364.232 344.109L362.884 342.119C363.131 342.03 363.404 341.912 363.709 341.767C364.013 341.621 364.299 341.441 364.569 341.228C364.837 341.014 365.063 340.761 365.242 340.468C365.423 340.176 365.524 339.84 365.546 339.458C364.924 339.469 364.318 339.266 363.827 338.884C363.337 338.504 363.09 337.953 363.09 337.236V337.235ZM98.36 279.394C98.473 279.103 98.53 278.81 98.53 278.519H98.531C98.531 277.8 98.283 277.251 97.791 276.87C97.297 276.488 96.723 276.298 96.073 276.298C96.096 275.915 96.196 275.577 96.376 275.285C96.556 274.993 96.779 274.74 97.049 274.527C97.319 274.313 97.606 274.134 97.909 273.988C98.1784 273.858 98.4537 273.74 98.734 273.636L97.386 271.648C97.342 271.67 97.219 271.728 97.016 271.815C96.813 271.904 96.571 272.023 96.291 272.167C95.9829 272.329 95.6847 272.509 95.398 272.707C95.0946 272.909 94.8119 273.14 94.554 273.397C94.001 273.947 93.5604 274.599 93.257 275.317C92.954 276.037 92.802 276.825 92.802 277.677C92.7999 278.112 92.8681 278.544 93.004 278.957C93.1262 279.339 93.3207 279.694 93.577 280.002C93.8723 280.319 94.2343 280.567 94.637 280.727C95.0489 280.895 95.4894 280.98 95.934 280.979C96.6564 280.989 97.3513 280.703 97.857 280.187C98.0757 279.959 98.2467 279.689 98.36 279.394ZM90.694 278.519C90.6892 279.141 90.4487 279.738 90.021 280.189C89.7854 280.431 89.5048 280.625 89.195 280.76C88.869 280.906 88.503 280.98 88.099 280.98C87.6541 280.981 87.2131 280.896 86.801 280.728C86.3984 280.567 86.0364 280.319 85.741 280.002C85.484 279.694 85.2894 279.339 85.168 278.957C85.0316 278.544 84.9634 278.112 84.966 277.677C84.966 276.825 85.116 276.037 85.421 275.317C85.7241 274.599 86.1647 273.946 86.718 273.397C86.965 273.149 87.245 272.92 87.561 272.706C87.875 272.494 88.173 272.313 88.454 272.166C88.734 272.022 88.974 271.904 89.178 271.816L89.2347 271.79C89.4036 271.714 89.5094 271.667 89.55 271.646L90.897 273.634C90.649 273.724 90.375 273.842 90.071 273.987C89.768 274.134 89.481 274.313 89.214 274.525C88.9465 274.737 88.7178 274.994 88.538 275.284C88.359 275.576 88.258 275.914 88.236 276.296C88.886 276.296 89.46 276.486 89.954 276.869C90.447 277.251 90.694 277.799 90.694 278.519ZM339.859 335.393H336.044L347.925 314.757H351.701L339.859 335.393ZM335.863 336.881C334.627 336.881 333.682 337.861 333.682 339.099C333.682 340.337 334.628 341.279 335.863 341.279C337.095 341.279 338.08 340.335 338.08 339.099C338.08 337.863 337.095 336.881 335.863 336.881ZM310.601 329.466L309.511 331.354C310.346 333.825 313.65 332.445 314.78 330.483L316.595 327.359C317.94 325.069 314.961 323.398 310.601 329.466ZM334.603 334.334C334.385 333.754 333.731 333.171 333.186 333.027L332.931 333.319C331.602 334.879 330.075 336.258 328.389 337.423C328.859 336.012 329.106 334.304 329.372 332.458C329.784 329.599 330.244 326.409 331.657 323.473L328.822 321.946C328.544 322.328 328.207 322.799 327.821 323.338L327.82 323.339L327.82 323.339C326.043 325.822 323.236 329.743 320.43 333.027C320.436 333.037 320.446 333.045 320.451 333.052C320.445 333.049 320.438 333.045 320.431 333.041C320.423 333.035 320.414 333.03 320.406 333.027L320.153 333.319C317.426 336.479 314.776 338.985 313.103 338.985C312.269 338.985 311.469 338.149 311.469 336.442V334.88C314.121 335.207 316.919 333.462 318.699 330.376L319.715 328.633C323.237 322.603 317.498 320.603 313.647 324.129L319.022 314.792H315.243L304.468 333.487C304.261 333.303 304.029 333.15 303.779 333.03L303.523 333.322C300.8 336.482 297.312 338.988 294.66 338.988C292.335 338.988 290.955 337.535 292.699 334.484L296.583 327.727C298.763 323.985 302.615 324.603 300.361 328.527L299.817 329.471H302.907L303.452 328.527C305.486 325.039 303.523 322.423 300.437 322.423C297.386 322.423 294.95 324.023 293.352 326.783L289.634 333.163C289.614 333.151 289.594 333.139 289.575 333.127C289.515 333.091 289.456 333.055 289.401 333.031L289.146 333.323C286.422 336.483 283.771 338.989 282.099 338.989C281.263 338.989 280.793 338.409 281.663 336.919L289.729 322.786H285.949L279.23 334.52C276.357 337.135 274.145 338.588 273.416 338.262C272.54 337.892 273.289 336.646 273.78 335.83C273.818 335.766 273.855 335.705 273.889 335.647L281.263 322.786H277.485L270.147 335.481C269.641 335.942 268.838 336.372 268.114 336.761C267.67 336.999 267.256 337.221 266.957 337.425C267.428 336.013 267.674 334.305 267.941 332.458V332.458L267.941 332.457C268.353 329.599 268.814 326.41 270.226 323.475L267.394 321.948C265.831 324.091 257.111 335.646 253.696 339.641C254.021 340.113 254.568 340.586 255.112 340.949C257.255 338.479 264.45 329.215 265.794 327.435C265.293 328.753 265.051 330.425 264.814 332.063C264.345 335.3 263.895 338.407 261.506 338.407C260.236 338.407 259.726 337.025 259.726 337.025L257.365 338.261C257.365 338.261 258.055 341.311 261.505 341.311C261.839 341.311 262.141 341.281 262.469 341.248L262.469 341.248L262.561 341.239C262.568 341.239 262.574 341.238 262.581 341.236C262.587 341.234 262.593 341.231 262.599 341.228C262.604 341.226 262.609 341.224 262.614 341.221L262.614 341.221C262.625 341.215 262.635 341.21 262.646 341.207L262.651 341.205L262.654 341.204C262.659 341.204 262.663 341.203 262.667 341.203C264.587 340.949 267.245 340.065 269.027 338.833C269.015 340.37 269.943 341.311 271.527 341.311C273.595 341.311 275.922 339.422 277.737 337.679C277.376 339.714 278.572 341.311 280.972 341.311C283.318 341.311 285.931 339.425 288.409 336.948C288.443 339.458 290.377 341.311 293.535 341.311C296.601 341.311 299.649 339.598 302.276 337.295L300.171 340.949H303.987L308.31 333.429V336.443C308.31 339.675 308.927 341.311 311.98 341.311C315.103 341.311 318.701 337.97 321.825 334.336C321.823 334.333 321.821 334.33 321.818 334.326C321.812 334.319 321.806 334.311 321.805 334.302C321.819 334.314 321.836 334.325 321.852 334.336C323.565 332.362 325.117 330.271 326.355 328.602C326.666 328.183 326.958 327.79 327.227 327.432C326.727 328.75 326.486 330.42 326.249 332.058C325.78 335.296 325.33 338.405 322.94 338.405C321.67 338.405 321.16 337.023 321.16 337.023L318.798 338.259C318.798 338.259 319.489 341.309 322.94 341.309C323.268 341.309 323.566 341.28 323.892 341.247L323.996 341.237C324.012 341.237 324.027 341.23 324.043 341.222C324.062 341.212 324.081 341.202 324.101 341.202C327.954 340.69 331.769 337.64 334.602 334.332L334.603 334.334ZM219.829 333.248H220.012L222.772 328.526C225.06 324.601 221.428 322.821 218.775 327.326L216.959 330.414L214.089 335.391C211.836 339.315 216.16 339.895 217.939 336.845L217.976 336.772C217.758 336.41 217.613 335.975 217.613 335.503C217.613 334.265 218.594 333.248 219.829 333.248ZM194.582 347.379C193.782 348.796 192.51 348.579 192.51 347.563C192.51 346.583 193.419 345.457 196.325 344.329L194.582 347.379ZM159.737 338.952C161.299 338.952 163.552 337.244 165.84 333.649L168.781 328.489C170.635 325.073 166.603 324.166 164.568 327.688L159.301 336.881C158.43 338.372 158.902 338.952 159.737 338.952ZM153.786 318.899C154.912 316.972 156.148 316.137 157.201 316.137C158.619 316.137 159.272 317.081 159.272 318.462C159.272 321.986 154.908 329.295 149.1 328.343H148.337L153.786 318.899ZM246.309 333.285L246.563 332.993L246.564 332.994C247.074 333.212 247.727 333.794 247.982 334.305C244.856 337.938 241.262 341.28 238.136 341.28C235.083 341.28 233.958 338.703 235.556 335.904L240.46 327.366C242.096 324.568 239.516 323.625 233.739 330.855L227.963 340.918H224.148L226.688 336.524C225.002 337.454 223.134 337.974 221.754 337.974H220.919C216.681 343.332 209.653 342.129 210.173 336.852C206.921 340.071 203.807 342.03 200.648 343.024L197.742 348.002C195.02 352.652 189.46 351.888 189.46 348.255C189.46 345.423 192.657 343.314 197.78 341.79L199.851 338.23C198.142 339.754 196.073 341.28 194.256 341.28C192.374 341.28 191.415 339.948 191.868 337.87C189.694 339.86 187.461 341.28 185.428 341.28C182.377 341.28 181.251 338.704 182.849 335.904L187.753 327.37C189.388 324.571 186.808 323.628 181.031 330.858L175.255 340.921H171.441L172.833 338.51C170.891 340.159 168.923 341.283 167.113 341.283C165.189 341.283 164.025 340.268 163.845 338.814C162.028 340.303 160.139 341.283 158.613 341.283C155.938 341.283 154.742 339.302 155.565 336.928L155.341 337.141L155.341 337.141C152.851 339.51 150.988 341.283 146.884 341.283C141.544 341.283 139.983 336.199 142.634 331.621L143.759 329.657C140.709 328.059 139.001 325.152 139.001 322.139C139.001 319.593 140.198 317.017 142.888 315.089L144.123 317.307C142.489 318.577 141.689 320.321 141.689 322.064C141.689 324.172 142.853 326.279 145.069 327.442L150.955 317.305C152.661 314.327 155.132 312.873 157.203 312.873C159.999 312.873 162.216 315.088 162.216 318.503C162.216 319.993 161.743 321.736 160.69 323.589C157.711 328.784 153.133 330.856 149.1 330.856C148.339 330.856 147.648 330.779 146.958 330.672L145.903 332.524C143.653 336.376 145.214 338.955 147.793 338.955C151.468 338.955 153.552 336.538 156.206 333.459L156.353 333.288L156.607 332.996C156.878 333.069 157.175 333.251 157.435 333.484L161.338 326.748C162.934 323.985 165.77 322.388 167.803 322.388C170.274 322.388 171.909 324.604 171.764 326.202H173.907L167.803 336.882C166.932 338.374 167.404 338.954 168.239 338.954C169.912 338.954 172.564 336.447 175.287 333.287L175.541 332.995C175.666 333.053 175.786 333.12 175.9 333.197L181.938 322.752H185.718L184.301 325.221C186.189 323.259 187.897 322.387 189.532 322.387C191.639 322.387 193.201 324.459 191.566 327.329L186.117 336.882C185.246 338.374 185.718 338.954 186.553 338.954C188.225 338.954 190.876 336.447 193.601 333.287L193.855 332.995C193.97 333.049 194.081 333.111 194.186 333.182L200.214 322.752H203.992L196.617 335.612L196.57 335.692L196.506 335.798C196.016 336.616 195.271 337.859 196.145 338.228C196.871 338.554 199.124 337.065 202.031 334.378L208.714 322.752H212.493L202.138 340.482C205.116 339.207 207.768 336.882 210.893 333.287L211.147 332.996C211.266 333.05 211.38 333.114 211.489 333.186L213.109 330.416L214.961 327.183C217.142 323.405 219.393 322.243 222.3 322.243C225.862 322.243 227.968 325.982 225.68 329.944L222.12 336.084C224.009 336.047 226.117 335.137 227.823 333.285L228.078 332.993C228.248 333.073 228.41 333.17 228.56 333.283L234.648 322.75H238.427L237.01 325.219C238.9 323.257 240.605 322.386 242.241 322.386C244.346 322.386 245.912 324.457 244.276 327.327L238.826 336.88C237.955 338.372 238.426 338.952 239.262 338.952C240.934 338.952 243.587 336.445 246.309 333.285ZM365.194 297.421C362.904 301.162 360.579 302.942 358.982 302.942C358.147 302.942 357.675 302.362 358.545 300.872L363.812 291.679C365.847 288.155 369.879 289.064 368.026 292.479H368.061L365.194 297.421ZM322.903 302.942C324.464 302.942 326.717 301.234 329.007 297.64L331.948 292.479C333.8 289.064 329.768 288.155 327.734 291.679L322.466 300.872C321.596 302.362 322.067 302.942 322.903 302.942ZM289.09 311.37C288.293 312.787 287.02 312.57 287.02 311.554C287.02 310.573 287.892 309.447 290.799 308.32L289.09 311.37ZM300.535 280.129C299.48 280.129 298.245 280.963 297.118 282.889L291.67 292.334H292.433C302.06 294.564 306.529 280.129 300.535 280.129ZM374.782 296.986L374.527 297.276C371.807 300.436 369.153 302.943 367.48 302.943C366.645 302.943 366.173 302.363 367.043 300.872L379.832 278.748H376.053L370.496 288.339C369.842 287.285 368.606 286.377 367.043 286.377C365.008 286.377 362.176 287.976 360.577 290.736L356.879 297.116C356.866 297.109 356.853 297.101 356.84 297.093L356.815 297.078C356.757 297.043 356.699 297.008 356.645 296.984L356.39 297.276C353.667 300.436 351.39 302.942 349.718 302.942C348.881 302.942 348.411 302.362 349.28 300.872L354.73 291.317C356.367 288.447 354.802 286.375 352.696 286.375C351.06 286.375 349.356 287.246 347.464 289.21L348.881 286.74H345.102L339.065 297.187C338.95 297.11 338.83 297.042 338.705 296.984L338.449 297.276C335.726 300.436 333.075 302.942 331.403 302.942C330.568 302.942 330.097 302.362 330.967 300.872L337.07 290.19H334.926C335.072 288.592 333.438 286.375 330.966 286.375C328.931 286.375 326.096 287.974 324.498 290.733L320.846 297.039L320.64 297.273C317.918 300.432 314.89 302.938 313.22 302.938C312.383 302.938 311.913 302.358 312.783 300.868L316.561 294.257C317.868 291.967 317.25 290.624 316.016 289.134L313.91 286.59C313.365 285.9 313.365 285.137 314.128 284.41L312.166 282.267C310.022 284.194 309.841 286.336 311.184 288.08L311.513 288.516L311.379 288.705L311.379 288.706C309.721 291.048 307.523 294.153 305.116 296.981C305.157 297.04 305.202 297.098 305.25 297.156C305.29 297.204 305.331 297.253 305.374 297.301C302.261 300.881 299.615 303.196 296.644 304.463L301.439 296.253H297.661L297.262 296.908C295.264 300.432 292.974 302.939 290.032 302.939C287.452 302.939 286.982 300.36 289.232 296.509L290.287 294.657C290.995 294.774 291.711 294.834 292.429 294.838C305.872 294.838 312.375 276.856 300.533 276.856C298.461 276.856 295.989 278.31 294.283 281.288L288.398 291.423C286.182 290.262 285.02 288.155 285.02 286.048C285.02 284.305 285.82 282.56 287.452 281.29L286.219 279.073C283.529 280.999 282.331 283.577 282.331 286.12C282.331 289.136 284.04 292.042 287.091 293.64L285.964 295.603C283.312 300.181 283.784 305.266 289.126 305.266C290.724 305.266 292.067 304.794 293.231 304.066L292.248 305.776C287.128 307.336 283.966 309.407 283.966 312.241C283.966 315.873 289.526 316.637 292.248 311.987L295.155 307.01C299.08 305.775 302.931 303.087 307.073 298.291C307.006 298.165 306.927 298.046 306.837 297.936C308.515 295.965 309.939 294.062 312.787 290.19L313.294 290.809C313.767 291.425 313.948 292.189 313.512 292.953L309.515 299.89C307.916 302.685 309.043 305.264 312.095 305.264C313.994 305.264 316.443 304.025 318.48 302.24C318.436 303.978 319.624 305.264 321.779 305.264C323.304 305.264 325.194 304.284 327.009 302.794C327.192 304.248 328.356 305.264 330.279 305.264C332.089 305.264 334.056 304.139 335.999 302.49L334.607 304.902H338.42L344.197 294.837C349.974 287.608 352.554 288.553 350.917 291.35L346.014 299.888C344.417 302.686 345.541 305.264 348.592 305.264C350.602 305.264 352.428 303.88 354.574 301.931C354.374 303.824 355.578 305.264 357.856 305.264C359.381 305.264 361.27 304.284 363.088 302.794C363.27 304.249 364.433 305.264 366.357 305.264C369.482 305.264 373.077 301.923 376.202 298.288C375.946 297.784 375.293 297.203 374.782 296.986ZM266.281 292.48C268.535 288.556 264.682 287.939 262.502 291.681L260.068 295.931C261.484 296.439 263.919 296.513 265.736 293.424L266.281 292.48ZM259.451 305.268C263.738 305.268 267.991 301.927 271.113 298.293C270.86 297.783 270.205 297.203 269.696 296.985L269.443 297.277C266.717 300.437 263.23 302.943 260.576 302.943C258.251 302.943 256.871 301.49 258.614 298.438L258.977 297.785C261.412 298.801 265.989 298.33 268.823 293.425L269.368 292.481C271.403 288.992 269.441 286.377 266.352 286.377C263.302 286.377 260.868 287.975 259.269 290.736L255.59 297.049C255.552 297.029 255.514 297.001 255.478 296.985L255.223 297.277C252.499 300.437 249.848 302.943 248.176 302.943C247.34 302.943 246.87 302.363 247.739 300.872L253.189 291.317C254.824 288.447 253.261 286.375 251.153 286.375C249.518 286.375 247.774 287.284 245.887 289.246L251.917 278.746H248.139L237.483 297.236C237.348 297.138 237.203 297.053 237.051 296.984L236.796 297.275C234.071 300.436 231.42 302.942 229.748 302.942C228.913 302.942 228.441 302.362 229.311 300.872L237.413 286.738H240.503L241.593 284.921H238.468L242.028 278.746H238.25L234.69 284.921H231.275L230.185 286.738H233.635L226.042 299.891C224.444 302.69 225.57 305.268 228.621 305.268C230.499 305.268 232.547 304.055 234.561 302.304L233.062 304.904H236.877L242.617 294.912C248.43 287.61 251.01 288.555 249.375 291.352L244.47 299.89C242.872 302.688 243.998 305.266 247.05 305.266C249.346 305.266 251.896 303.461 254.326 301.061C254.436 303.492 256.359 305.268 259.451 305.268ZM135.756 292.479C138.01 288.555 134.16 287.938 131.98 291.68L129.545 295.929C130.961 296.438 133.397 296.511 135.212 293.423L135.756 292.479ZM155.099 300.871L160.367 291.68C162.401 288.154 166.434 289.063 164.58 292.479L161.638 297.638C159.35 301.233 157.095 302.942 155.534 302.942C154.7 302.942 154.227 302.361 155.099 300.872V300.871ZM212.859 292.479C215.113 288.555 211.263 287.938 209.083 291.68L206.648 295.929C208.064 296.437 210.499 296.511 212.314 293.423L212.859 292.479ZM151.275 301.206C150.648 303.446 151.845 305.266 154.409 305.266C155.934 305.266 157.824 304.286 159.639 302.797C159.822 304.25 160.985 305.267 162.909 305.267C164.922 305.267 167.127 303.877 169.278 301.921C168.86 303.963 169.817 305.267 171.678 305.267C173.751 305.267 176.076 303.377 177.891 301.633C177.527 303.669 178.728 305.267 181.125 305.267C184.25 305.267 187.845 301.925 190.97 298.291C190.955 298.262 190.935 298.232 190.914 298.203C190.899 298.182 190.883 298.161 190.87 298.14C192.51 296.232 193.998 294.233 195.2 292.618L195.2 292.618L195.2 292.617L195.201 292.617L195.201 292.616C195.529 292.175 195.836 291.764 196.118 291.39C195.617 292.708 195.375 294.379 195.138 296.018V296.018C194.669 299.254 194.219 302.362 191.83 302.362C190.56 302.362 190.05 300.98 190.05 300.98L187.687 302.215C187.687 302.215 188.377 305.267 191.829 305.267C192.153 305.267 192.447 305.238 192.766 305.206L192.883 305.194C192.902 305.194 192.92 305.185 192.938 305.176C192.956 305.168 192.973 305.159 192.991 305.159C195.767 304.792 198.52 303.103 200.904 300.95C200.962 303.436 202.89 305.267 206.029 305.267C210.316 305.267 214.567 301.926 217.691 298.291C217.437 297.781 216.783 297.201 216.275 296.983L216.021 297.275C213.296 300.435 209.808 302.942 207.158 302.942C204.832 302.942 203.451 301.488 205.195 298.437L205.559 297.783C207.991 298.799 212.569 298.328 215.404 293.423L215.949 292.48C217.983 288.991 216.021 286.376 212.934 286.376C209.884 286.376 207.447 287.974 205.851 290.734L202.181 297.028C202.165 297.023 202.149 297.014 202.133 297.006C202.114 296.997 202.096 296.987 202.077 296.982L201.823 297.273C200.494 298.833 198.967 300.213 197.281 301.379C197.752 299.967 197.998 298.259 198.265 296.412V296.412L198.265 296.412C198.678 293.554 199.139 290.364 200.551 287.428L197.718 285.902C197.434 286.292 197.089 286.774 196.693 287.326L196.693 287.326C194.914 289.811 192.12 293.713 189.325 296.982C189.336 296.997 189.348 297.012 189.36 297.028C189.368 297.037 189.376 297.047 189.384 297.056L189.386 297.059L189.387 297.06C189.403 297.08 189.42 297.1 189.435 297.12L189.3 297.273C186.576 300.433 183.924 302.94 182.252 302.94C181.417 302.94 180.945 302.36 181.816 300.87L189.881 286.735H186.102L179.382 298.469C176.512 301.085 174.297 302.538 173.568 302.211C172.692 301.841 173.443 300.593 173.934 299.776L173.935 299.774L173.944 299.759C173.965 299.726 173.984 299.693 174.003 299.661C174.016 299.639 174.029 299.617 174.042 299.596L181.415 286.736H177.637L171.624 297.141L171.59 297.12C171.504 297.067 171.418 297.014 171.337 296.98L171.083 297.27C168.358 300.43 165.707 302.937 164.035 302.937C163.2 302.937 162.728 302.357 163.599 300.867L169.702 290.185H167.558C167.704 288.587 166.07 286.369 163.598 286.369C161.564 286.369 158.73 287.969 157.132 290.729L153.302 297.341C153.126 297.197 152.932 297.075 152.726 296.978L152.472 297.268C149.748 300.428 146.614 302.935 143.962 302.935C141.638 302.935 140.256 301.482 141.999 298.431L145.886 291.675C148.066 287.933 151.917 288.55 149.663 292.473L149.118 293.418H152.208L152.752 292.473C154.786 288.986 152.825 286.369 149.738 286.369C146.686 286.369 144.604 287.969 143.008 290.729L139.252 297.172C139.142 297.098 139.026 297.033 138.905 296.978L138.651 297.268C135.927 300.428 132.704 302.935 130.053 302.935C127.727 302.935 126.346 301.482 128.09 298.431L128.453 297.777C130.887 298.795 135.465 298.322 138.299 293.419L138.844 292.473C140.878 288.987 138.916 286.37 135.828 286.37C132.778 286.37 130.342 287.968 128.745 290.73L124.785 297.522C122.422 301.555 124.458 305.26 128.925 305.26C132.254 305.26 134.938 303.245 137.713 300.643C137.615 303.28 139.571 305.26 142.834 305.26C145.922 305.266 148.634 303.532 151.275 301.206ZM117.454 282.015L114.403 287.246V287.247C118.254 287.174 120.399 286.338 121.849 283.614C123.739 280.053 120.214 277.258 117.454 282.015ZM110.335 304.466C108.082 304.466 106.302 303.958 104.885 303.16C105.539 302.396 106.192 301.451 106.775 300.471L113.131 289.463L114.148 289.571C123.014 291.426 119.489 304.466 110.335 304.466ZM119.672 288.991C127.3 286.41 127.881 276.856 120.361 276.856C118.29 276.856 115.82 278.309 114.113 281.288L103.94 298.872C103.52 299.627 103.034 300.344 102.488 301.013C99.872 297.418 100.635 292.042 104.304 289.679L102.777 287.753C94.857 292.803 97.183 307.37 110.407 307.37C121.707 307.372 126.937 293.824 119.672 288.991Z" fill="white"/>
</g>
<defs>
<filter id="filter0_d" x="101.025" y="56.09" width="263.952" height="36.8008" filterUnits="userSpaceOnUse" color-interpolation-filters="sRGB">
<feFlood flood-opacity="0" result="BackgroundImageFix"/>
<feColorMatrix in="SourceAlpha" type="matrix" values="0 0 0 0 0 0 0 0 0 0 0 0 0 0 0 0 0 0 127 0"/>
<feOffset dy="4"/>
<feGaussianBlur stdDeviation="2"/>
<feColorMatrix type="matrix" values="0 0 0 0 0 0 0 0 0 0 0 0 0 0 0 0 0 0 0.25 0"/>
<feBlend mode="normal" in2="BackgroundImageFix" result="effect1_dropShadow"/>
<feBlend mode="normal" in="SourceGraphic" in2="effect1_dropShadow" result="shape"/>
</filter>
<filter id="filter1_d" x="134.957" y="0.352997" width="195.743" height="52.748" filterUnits="userSpaceOnUse" color-interpolation-filters="sRGB">
<feFlood flood-opacity="0" result="BackgroundImageFix"/>
<feColorMatrix in="SourceAlpha" type="matrix" values="0 0 0 0 0 0 0 0 0 0 0 0 0 0 0 0 0 0 127 0"/>
<feOffset dy="4"/>
<feGaussianBlur stdDeviation="2"/>
<feColorMatrix type="matrix" values="0 0 0 0 0 0 0 0 0 0 0 0 0 0 0 0 0 0 0.25 0"/>
<feBlend mode="normal" in2="BackgroundImageFix" result="effect1_dropShadow"/>
<feBlend mode="normal" in="SourceGraphic" in2="effect1_dropShadow" result="shape"/>
</filter>
<filter id="filter2_d" x="0.384033" y="138.206" width="464.652" height="221.032" filterUnits="userSpaceOnUse" color-interpolation-filters="sRGB">
<feFlood flood-opacity="0" result="BackgroundImageFix"/>
<feColorMatrix in="SourceAlpha" type="matrix" values="0 0 0 0 0 0 0 0 0 0 0 0 0 0 0 0 0 0 127 0"/>
<feOffset dy="4"/>
<feGaussianBlur stdDeviation="2"/>
<feColorMatrix type="matrix" values="0 0 0 0 0 0 0 0 0 0 0 0 0 0 0 0 0 0 0.25 0"/>
<feBlend mode="normal" in2="BackgroundImageFix" result="effect1_dropShadow"/>
<feBlend mode="normal" in="SourceGraphic" in2="effect1_dropShadow" result="shape"/>
</filter>
</defs>
</svg>
